#define 1420576802622_width 8
#define 1420576802622_height 11
static char 1420576802622_bits[] = {
  0xF7, 0xE7, 0xD7, 0xB5, 0xD3, 0xE7, 0xD3, 0xB5, 0xD7, 0xE7, 0xF7, };
