#define heart_icon_width 16
#define heart_icon_height 16
static char heart_icon_bits[] = {
  0x00, 0x00, 0x00, 0x00, 0x3C, 0x3C, 0x7E, 0x7E, 0xFF, 0xFF, 0xFF, 0xFF, 
  0xFF, 0xFF, 0xFF, 0xFF, 0xFE, 0x7F, 0xFC, 0x3F, 0xFC, 0x1F, 0xF0, 0x0F, 
  0xE0, 0x07, 0xC0, 0x03, 0x80, 0x01, 0x80, 0x00, };
