#define media_pause_icon_width 16
#define media_pause_icon_height 16
static char media_pause_icon_bits[] = {
  0x00, 0x00, 0x00, 0x00, 0x3C, 0x3C, 0x3C, 0x3C, 0x3C, 0x3C, 0x3C, 0x3C, 
  0x3C, 0x3C, 0x3C, 0x3C, 0x3C, 0x3C, 0x3C, 0x3C, 0x3C, 0x3C, 0x3C, 0x3C, 
  0x3C, 0x3C, 0x3C, 0x3C, 0x00, 0x00, 0x00, 0x00, };
