#define power_standby_icon_width 16
#define power_standby_icon_height 16
static char power_standby_icon_bits[] = {
  0xC0, 0x00, 0xC0, 0x00, 0xC0, 0x00, 0xCC, 0x0C, 0xDE, 0x1E, 0xCE, 0x1C, 
  0xC7, 0x38, 0xC3, 0x38, 0x03, 0x30, 0x03, 0x30, 0x03, 0x30, 0x07, 0x38, 
  0x0E, 0x1C, 0x3E, 0x1E, 0xFC, 0x0F, 0xF0, 0x03, };
