#define signal_icon_width 16
#define signal_icon_height 16
static char signal_icon_bits[] = {
  0x00, 0x30, 0x00, 0x30, 0x00, 0x33, 0x00, 0x33, 0x00, 0x33, 0x00, 0x33, 
  0x30, 0x33, 0x30, 0x33, 0x30, 0x33, 0x30, 0x33, 0x33, 0x33, 0x33, 0x33, 
  0x33, 0x33, 0x33, 0x33, 0x33, 0x33, 0x33, 0x33, };
