#define timer_icon_width 16
#define timer_icon_height 16
static char timer_icon_bits[] = {
  0xF0, 0x03, 0xF0, 0x03, 0xF0, 0x03, 0xFC, 0x11, 0x3E, 0x08, 0x0E, 0x06, 
  0x07, 0x07, 0x83, 0x3B, 0xC3, 0x31, 0xC3, 0x30, 0x03, 0x30, 0x07, 0x38, 
  0x0E, 0x1C, 0x3E, 0x1E, 0xFC, 0x0F, 0xF0, 0x03, };
