#define bluetooth_icon_width 16
#define bluetooth_icon_height 16
static char bluetooth_icon_bits[] = {
  0x60, 0x00, 0xE0, 0x01, 0xE0, 0x03, 0xE0, 0x07, 0x7C, 0x1E, 0x7C, 0x0E, 
  0xF8, 0x07, 0xF0, 0x03, 0xF0, 0x03, 0xF8, 0x07, 0x7C, 0x1E, 0x7C, 0x0E, 
  0xE0, 0x07, 0xE0, 0x03, 0xE0, 0x01, 0x60, 0x00, };
