#define check_icon_width 16
#define check_icon_height 16
static char check_icon_bits[] = {
  0x00, 0x00, 0x00, 0x00, 0x00, 0x30, 0x00, 0x78, 0x00, 0xFC, 0x00, 0x7E, 
  0x0C, 0x3F, 0x9E, 0x1F, 0xFF, 0x0F, 0xFF, 0x0F, 0xFE, 0x03, 0xFC, 0x01, 
  0xF8, 0x00, 0x70, 0x00, 0x20, 0x00, 0x00, 0x00, };
