#define cog_icon_width 16
#define cog_icon_height 16
static char cog_icon_bits[] = {
  0x80, 0x01, 0xC0, 0x03, 0xFC, 0x3F, 0xFC, 0x3F, 0xFC, 0x3F, 0x7C, 0x3E, 
  0x3E, 0x7C, 0x1F, 0xF8, 0x1F, 0xF8, 0x3E, 0x7C, 0x7C, 0x3E, 0xFC, 0x3F, 
  0xFC, 0x3F, 0xFC, 0x3F, 0xC0, 0x03, 0x80, 0x01, };
