#define media_play_icon_width 16
#define media_play_icon_height 16
static char media_play_icon_bits[] = {
  0x00, 0x00, 0x00, 0x00, 0x04, 0x00, 0x3C, 0x00, 0x7C, 0x00, 0xFC, 0x03, 
  0xFC, 0x07, 0xFC, 0x1F, 0xFC, 0x1F, 0xFC, 0x0F, 0xFC, 0x01, 0xFC, 0x00, 
  0x1C, 0x00, 0x04, 0x00, 0x00, 0x00, 0x00, 0x00, };
