#define wrench_icon_width 16
#define wrench_icon_height 16
static char wrench_icon_bits[] = {
  0x00, 0x0F, 0x80, 0x07, 0xC0, 0x03, 0xC0, 0x03, 0xC0, 0x83, 0xC0, 0xC3, 
  0xC0, 0xFF, 0xE0, 0xFF, 0xF0, 0x7F, 0xF8, 0x3F, 0xFC, 0x01, 0xFE, 0x00, 
  0x7F, 0x00, 0x3D, 0x00, 0x19, 0x00, 0x0F, 0x00, };
