#define x_icon_width 16
#define x_icon_height 16
static char x_icon_bits[] = {
  0x0C, 0x30, 0x0E, 0x78, 0x3F, 0x7C, 0x7F, 0x7E, 0xFE, 0x3F, 0xF8, 0x1F, 
  0xF8, 0x0F, 0xF0, 0x07, 0xF0, 0x0F, 0xF8, 0x0F, 0xFC, 0x3F, 0x7E, 0x7F, 
  0x3F, 0xFC, 0x1F, 0x7C, 0x0E, 0x38, 0x04, 0x10, };
